<svg width="76" height="60" viewBox="0 0 76 60" fill="none" xmlns="http://www.w3.org/2000/svg">
<path d="M70 0H6C4.4087 0 2.88258 0.63214 1.75736 1.75736C0.632141 2.88258 0 4.4087 0 6V56C0 57.0609 0.421427 58.0783 1.17157 58.8284C1.92172 59.5786 2.93913 60 4 60H72C73.0609 60 74.0783 59.5786 74.8284 58.8284C75.5786 58.0783 76 57.0609 76 56V6C76 4.4087 75.3679 2.88258 74.2426 1.75736C73.1174 0.63214 71.5913 0 70 0ZM6 4H70C70.5304 4 71.0391 4.21071 71.4142 4.58579C71.7893 4.96086 72 5.46957 72 6V44.49L54.95 27.44C54.5785 27.0681 54.1374 26.7731 53.6518 26.5718C53.1662 26.3705 52.6457 26.2669 52.12 26.2669C51.5943 26.2669 51.0738 26.3705 50.5882 26.5718C50.1026 26.7731 49.6615 27.0681 49.29 27.44L41.87 34.86L26.95 19.94C26.5785 19.5681 26.1374 19.2731 25.6518 19.0718C25.1662 18.8705 24.6457 18.7669 24.12 18.7669C23.5943 18.7669 23.0738 18.8705 22.5882 19.0718C22.1026 19.2731 21.6615 19.5681 21.29 19.94L4 37.24V6C4 5.46957 4.21071 4.96086 4.58579 4.58579C4.96086 4.21071 5.46957 4 6 4ZM6 56C5.46957 56 4.96086 55.7893 4.58579 55.4142C4.21071 55.0391 4 54.5304 4 54V42.9L24.12 22.77L39 37.69C39.3715 38.0619 39.8126 38.3569 40.2982 38.5582C40.7838 38.7595 41.3043 38.8631 41.83 38.8631C42.3557 38.8631 42.8762 38.7595 43.3618 38.5582C43.8474 38.3569 44.2885 38.0619 44.66 37.69L52.08 30.27L72 50.15V54C72 54.5304 71.7893 55.0391 71.4142 55.4142C71.0391 55.7893 70.5304 56 70 56H6Z" fill="currentColor"/>
<path d="M61.42 20.83C62.7392 20.83 64.0288 20.4388 65.1257 19.7059C66.2225 18.973 67.0774 17.9313 67.5823 16.7125C68.0871 15.4937 68.2192 14.1526 67.9618 12.8587C67.7045 11.5649 67.0692 10.3764 66.1364 9.44359C65.2036 8.51077 64.0151 7.87552 62.7213 7.61816C61.4274 7.36079 60.0863 7.49288 58.8675 7.99772C57.6487 8.50255 56.607 9.35746 55.8741 10.4543C55.1412 11.5512 54.75 12.8408 54.75 14.16C54.75 15.0359 54.9225 15.9032 55.2577 16.7125C55.5929 17.5217 56.0842 18.257 56.7036 18.8764C57.323 19.4958 58.0583 19.9871 58.8675 20.3223C59.6767 20.6575 60.5441 20.83 61.42 20.83ZM61.42 11.5C61.9481 11.5 62.4643 11.6566 62.9034 11.95C63.3425 12.2434 63.6847 12.6603 63.8868 13.1482C64.0888 13.6361 64.1417 14.173 64.0387 14.6909C63.9357 15.2088 63.6814 15.6846 63.308 16.058C62.9346 16.4314 62.4588 16.6857 61.9409 16.7887C61.423 16.8917 60.8861 16.8388 60.3982 16.6368C59.9104 16.4347 59.4934 16.0924 59.2 15.6534C58.9066 15.2143 58.75 14.6981 58.75 14.17C58.75 13.8194 58.8191 13.4722 58.9532 13.1482C59.0874 12.8243 59.2841 12.53 59.532 12.282C59.78 12.0341 60.0743 11.8374 60.3982 11.7032C60.7222 11.5691 61.0694 11.5 61.42 11.5Z" fill="currentColor"/>
</svg>
