<svg width="64" height="65" viewBox="0 0 64 65" fill="none" xmlns="http://www.w3.org/2000/svg">
<path d="M63.75 38C64.0249 36.8713 64.0583 35.6972 63.8481 34.5547C63.6379 33.4122 63.1887 32.3269 62.53 31.37L56 21.57C55.8874 15.8101 53.5199 10.3241 49.4063 6.29089C45.2926 2.25763 39.761 -0.00110013 34 4.01972e-07C32.9391 4.01972e-07 31.9217 0.421429 31.1716 1.17157C30.4214 1.92172 30 2.93913 30 4V4.24C30.0075 4.75209 30.1178 5.25745 30.3245 5.72603C30.5313 6.19461 30.8301 6.61685 31.2032 6.96762C31.5764 7.3184 32.0163 7.59055 32.4967 7.7679C32.9772 7.94526 33.4884 8.02419 34 8C35.8338 7.98681 37.652 8.3366 39.35 9.02923C41.048 9.72187 42.5921 10.7436 43.8935 12.0357C45.1948 13.3277 46.2277 14.8645 46.9324 16.5575C47.6372 18.2505 48 20.0662 48 21.9V24L56 36H50C49.4696 36 48.9609 36.2107 48.5858 36.5858C48.2107 36.9609 48 37.4696 48 38V48C48 48.5304 47.7893 49.0391 47.4142 49.4142C47.0391 49.7893 46.5304 50 46 50H40C38.9391 50 37.9217 50.4214 37.1716 51.1716C36.4214 51.9217 36 52.9391 36 54V59.83C35.9798 60.8484 36.3376 61.8381 37.0043 62.6082C37.6709 63.3783 38.5992 63.8741 39.61 64C40.1671 64.0546 40.7295 63.9916 41.2607 63.8152C41.792 63.6388 42.2803 63.3528 42.6941 62.9758C43.1079 62.5988 43.4379 62.1391 43.6629 61.6265C43.8878 61.1139 44.0027 60.5598 44 60V58H48C50.1217 58 52.1566 57.1571 53.6569 55.6569C55.1571 54.1566 56 52.1217 56 50V44C57.7743 44.0009 59.4985 43.4119 60.9014 42.3258C62.3044 41.2396 63.3064 39.7179 63.75 38Z" fill="black"/>
<path d="M18 38V48C18 48.5304 17.7893 49.0391 17.4142 49.4142C17.0391 49.7893 16.5304 50 16 50H10C8.93913 50 7.92172 50.4214 7.17157 51.1716C6.42143 51.9217 6 52.9391 6 54V59.83C5.97983 60.8484 6.33761 61.8381 7.00427 62.6082C7.67094 63.3783 8.59924 63.8741 9.61 64C10.1671 64.0546 10.7295 63.9916 11.2607 63.8152C11.792 63.6388 12.2803 63.3528 12.6941 62.9758C13.1079 62.5988 13.4379 62.1391 13.6629 61.6265C13.8878 61.1139 14.0027 60.5598 14 60V58H18C20.1217 58 22.1566 57.1571 23.6569 55.6569C25.1571 54.1566 26 52.1217 26 50V44C27.7743 44.0009 29.4985 43.4119 30.9014 42.3258C32.3044 41.2396 33.3064 39.7179 33.75 38C34.0249 36.8713 34.0583 35.6972 33.8481 34.5547C33.6379 33.4122 33.1887 32.3269 32.53 31.37L26 21.57C25.8874 15.8101 23.5199 10.3241 19.4063 6.29089C15.2926 2.25763 9.76102 -0.00110013 4 4.01972e-07C2.93913 4.01972e-07 1.92172 0.421429 1.17157 1.17157C0.421428 1.92172 0 2.93913 0 4V4.24C0.00747273 4.75209 0.117844 5.25745 0.324549 5.72603C0.531254 6.19461 0.830073 6.61685 1.20324 6.96762C1.5764 7.3184 2.01629 7.59055 2.49675 7.7679C2.97721 7.94526 3.48842 8.02419 4 8C5.83377 7.98681 7.65203 8.3366 9.35001 9.02923C11.048 9.72187 12.5921 10.7436 13.8935 12.0357C15.1948 13.3277 16.2277 14.8645 16.9324 16.5575C17.6372 18.2505 18 20.0662 18 21.9V24L26 36H20C19.4696 36 18.9609 36.2107 18.5858 36.5858C18.2107 36.9609 18 37.4696 18 38Z" fill="black"/>
</svg>
