<svg width="18" height="18" viewBox="0 0 18 18" fill="none" xmlns="http://www.w3.org/2000/svg">
<path d="M18 16.198V18L16.425 17.0055L12.2337 9.3555C12.8112 9.177 13.3362 8.888 13.7912 8.5055L18 16.198ZM13.625 5.25C13.625 5.9263 13.3484 6.57491 12.8562 7.05312C12.3639 7.53134 11.6962 7.8 11 7.8C10.8687 7.8 10.7463 7.8 10.615 7.8L5.575 17.0055L4 18V16.198L9.06625 6.95C8.10375 5.9045 8.19125 4.2895 9.27625 3.346C9.74875 2.938 10.3612 2.7 11 2.7V1C11.2321 1 11.4546 1.08955 11.6187 1.24896C11.7828 1.40837 11.875 1.62457 11.875 1.85V2.853C12.925 3.21 13.625 4.1705 13.625 5.25ZM11.875 5.25C11.875 5.02457 11.7828 4.80837 11.6187 4.64896C11.4546 4.48955 11.2321 4.4 11 4.4C10.7679 4.4 10.5454 4.48955 10.3813 4.64896C10.2172 4.80837 10.125 5.02457 10.125 5.25C10.125 5.47543 10.2172 5.69163 10.3813 5.85104C10.5454 6.01045 10.7679 6.1 11 6.1C11.2321 6.1 11.4546 6.01045 11.6187 5.85104C11.7828 5.69163 11.875 5.47543 11.875 5.25Z" fill="#6E8192"/>
</svg>
