<svg width="18" height="18" viewBox="0 0 18 18" fill="none" xmlns="http://www.w3.org/2000/svg">
<path d="M7 0H16V1.8H15.1V14.4C15.1 15.3548 14.7207 16.2705 14.0456 16.9456C13.3705 17.6207 12.4548 18 11.5 18C10.5452 18 9.62955 17.6207 8.95442 16.9456C8.27928 16.2705 7.9 15.3548 7.9 14.4V1.8H7V0ZM13.3 1.8H9.7V14.4C9.7 14.8774 9.88964 15.3352 10.2272 15.6728C10.5648 16.0104 11.0226 16.2 11.5 16.2C11.9774 16.2 12.4352 16.0104 12.7728 15.6728C13.1104 15.3352 13.3 14.8774 13.3 14.4V1.8Z" fill="#6E8192"/>
<path d="M14 7L11 7" stroke="#6E8192"/>
<path d="M14 10H11" stroke="#6E8192"/>
<path d="M14 13H11" stroke="#6E8192"/>
</svg>
