<svg width="18" height="18" viewBox="0 0 18 18" fill="none" xmlns="http://www.w3.org/2000/svg">
<g clip-path="url(#clip0_1915_2)">
<path d="M0 1.143L1.152 0L18 16.848L16.857 18L14.4 15.543V16.2H12.6V14.4H13.257L3.6 4.743V5.4H1.8V3.6H2.457L0 1.143ZM17.1 0C17.3387 0 17.5676 0.0948211 17.7364 0.263604C17.9052 0.432387 18 0.661305 18 0.9V1.8H16.2V0H17.1ZM12.6 1.8V0H14.4V1.8H12.6ZM9 1.8V0H10.8V1.8H9ZM5.4 1.8V0H7.2V1.8H5.4ZM9 16.2V14.4H10.8V16.2H9ZM5.4 16.2V14.4H7.2V16.2H5.4ZM2.7 16.2C2.46131 16.2 2.23239 16.1052 2.0636 15.9364C1.89482 15.7676 1.8 15.5387 1.8 15.3V14.4H3.6V16.2H2.7ZM1.8 10.8H3.6V12.6H1.8V10.8ZM18 10.8V12.6H16.2V10.8H18ZM1.8 7.2H3.6V9H1.8V7.2ZM18 7.2V9H16.2V7.2H18ZM18 3.6V5.4H16.2V3.6H18Z" fill="#6E8192"/>
</g>
<defs>
<clipPath id="clip0_1915_2">
<rect width="18" height="18" fill="white"/>
</clipPath>
</defs>
</svg>
